<mxfile host="app.diagrams.net" modified="2023-03-12T17:24:27.330Z" agent="5.0 (X11)" etag="qinH9BBbN45aJjOuA1W4" version="21.0.2" type="github" pages="2">
  <diagram id="prtHgNgQTEPvFCAcTncT" name="Page-1">
    <mxGraphModel dx="849" dy="581" grid="1" gridSize="10" guides="1" tooltips="1" connect="1" arrows="1" fold="1" page="1" pageScale="1" pageWidth="1169" pageHeight="827" math="0" shadow="0">
      <root>
        <mxCell id="0" />
        <mxCell id="1" parent="0" />
        <mxCell id="-uMLt3uFbst9-DU3asHZ-1" value="&lt;div&gt;&lt;br&gt;&lt;/div&gt;" style="text;html=1;align=center;verticalAlign=middle;resizable=0;points=[];autosize=1;strokeColor=none;fillColor=none;" parent="1" vertex="1">
          <mxGeometry x="470" y="70" width="20" height="30" as="geometry" />
        </mxCell>
        <mxCell id="b1TLpH0DYaXF8-X6dO7h-69" style="edgeStyle=orthogonalEdgeStyle;curved=1;rounded=0;orthogonalLoop=1;jettySize=auto;html=1;entryX=0.5;entryY=0;entryDx=0;entryDy=0;strokeWidth=3;fontSize=16;" parent="1" source="-uMLt3uFbst9-DU3asHZ-4" target="-uMLt3uFbst9-DU3asHZ-7" edge="1">
          <mxGeometry relative="1" as="geometry" />
        </mxCell>
        <mxCell id="-uMLt3uFbst9-DU3asHZ-4" value="&lt;font style=&quot;font-size: 23px;&quot;&gt;Study Any Metabolism&lt;br&gt;&lt;/font&gt;" style="text;html=1;strokeColor=none;fillColor=none;align=center;verticalAlign=middle;whiteSpace=wrap;rounded=0;" parent="1" vertex="1">
          <mxGeometry x="459" width="180" height="75" as="geometry" />
        </mxCell>
        <mxCell id="b1TLpH0DYaXF8-X6dO7h-96" style="edgeStyle=orthogonalEdgeStyle;curved=1;rounded=0;orthogonalLoop=1;jettySize=auto;html=1;strokeWidth=3;fontSize=23;fillColor=#6d8764;strokeColor=#3A5431;" parent="1" source="-uMLt3uFbst9-DU3asHZ-7" target="b1TLpH0DYaXF8-X6dO7h-84" edge="1">
          <mxGeometry relative="1" as="geometry">
            <mxPoint x="480" y="177" as="sourcePoint" />
            <Array as="points" />
          </mxGeometry>
        </mxCell>
        <mxCell id="b1TLpH0DYaXF8-X6dO7h-103" style="edgeStyle=orthogonalEdgeStyle;curved=1;rounded=0;orthogonalLoop=1;jettySize=auto;html=1;exitX=0.75;exitY=1;exitDx=0;exitDy=0;strokeWidth=3;fontSize=23;fillColor=#6d8764;strokeColor=#3A5431;" parent="1" source="-uMLt3uFbst9-DU3asHZ-7" target="b1TLpH0DYaXF8-X6dO7h-85" edge="1">
          <mxGeometry relative="1" as="geometry" />
        </mxCell>
        <mxCell id="sFF2S7-PHeseh_3p-4S--3" style="edgeStyle=orthogonalEdgeStyle;curved=1;orthogonalLoop=1;jettySize=auto;html=1;exitX=0.25;exitY=1;exitDx=0;exitDy=0;strokeWidth=3;fillColor=#6d8764;strokeColor=#3A5431;" parent="1" source="-uMLt3uFbst9-DU3asHZ-7" target="b1TLpH0DYaXF8-X6dO7h-87" edge="1">
          <mxGeometry relative="1" as="geometry" />
        </mxCell>
        <mxCell id="-uMLt3uFbst9-DU3asHZ-7" value="&lt;div&gt;You run:&lt;/div&gt;&lt;div style=&quot;font-size: 23px;&quot;&gt;dram2&lt;br&gt;&lt;/div&gt;" style="rounded=0;whiteSpace=wrap;html=1;fillColor=#6d8764;fontColor=#ffffff;strokeColor=#3A5431;" parent="1" vertex="1">
          <mxGeometry x="490" y="115" width="117" height="42" as="geometry" />
        </mxCell>
        <mxCell id="b1TLpH0DYaXF8-X6dO7h-2" value="&lt;div&gt;&lt;b&gt;/&amp;gt;dram2 --version&lt;br&gt;&lt;/b&gt;&lt;/div&gt;" style="rounded=1;whiteSpace=wrap;html=1;fillColor=#647687;fontColor=#ffffff;strokeColor=#314354;" parent="1" vertex="1">
          <mxGeometry x="40" y="327" width="160" height="30" as="geometry" />
        </mxCell>
        <mxCell id="b1TLpH0DYaXF8-X6dO7h-52" style="edgeStyle=orthogonalEdgeStyle;curved=1;rounded=0;orthogonalLoop=1;jettySize=auto;html=1;exitX=0.5;exitY=1;exitDx=0;exitDy=0;entryX=0.5;entryY=0;entryDx=0;entryDy=0;strokeWidth=3;fontSize=16;fillColor=#647687;strokeColor=#314354;" parent="1" source="b1TLpH0DYaXF8-X6dO7h-13" target="b1TLpH0DYaXF8-X6dO7h-2" edge="1">
          <mxGeometry relative="1" as="geometry" />
        </mxCell>
        <mxCell id="b1TLpH0DYaXF8-X6dO7h-13" value="&lt;font style=&quot;font-size: 23px;&quot;&gt;&lt;b&gt;&lt;font style=&quot;font-size: 23px;&quot;&gt;Get info&lt;br&gt;&lt;/font&gt;&lt;/b&gt;&lt;/font&gt;" style="text;html=1;strokeColor=none;fillColor=none;align=center;verticalAlign=middle;whiteSpace=wrap;rounded=0;" parent="1" vertex="1">
          <mxGeometry x="190" y="137" width="132" height="52" as="geometry" />
        </mxCell>
        <mxCell id="b1TLpH0DYaXF8-X6dO7h-73" value="&lt;div align=&quot;left&quot;&gt;&lt;b&gt;/&amp;gt; dram2 annotate&lt;/b&gt;&lt;br&gt;&lt;/div&gt;&lt;ul&gt;&lt;li&gt; --called for called genes&lt;/li&gt;&lt;li&gt;--add_to to add to annotations in directory &lt;/li&gt;&lt;li&gt;-- Inclued trees&lt;br&gt;&lt;/li&gt;&lt;/ul&gt;" style="rounded=1;whiteSpace=wrap;html=1;fillColor=#6d8764;fontColor=#ffffff;strokeColor=#3A5431;align=left;" parent="1" vertex="1">
          <mxGeometry x="458" y="378" width="240" height="131" as="geometry" />
        </mxCell>
        <mxCell id="b1TLpH0DYaXF8-X6dO7h-75" value="&lt;div&gt;&lt;b&gt;/&amp;gt; DRAM.py distill&lt;/b&gt;&lt;/div&gt;&lt;div&gt;&lt;b&gt;--use viral for viral&lt;/b&gt;&lt;/div&gt;&lt;div&gt;&lt;b&gt;--use methyl for methyl&lt;br&gt;&lt;/b&gt;&lt;/div&gt;" style="rounded=1;whiteSpace=wrap;html=1;fillColor=#6d8764;fontColor=#ffffff;strokeColor=#3A5431;" parent="1" vertex="1">
          <mxGeometry x="778.75" y="721" width="182.25" height="72" as="geometry" />
        </mxCell>
        <mxCell id="b1TLpH0DYaXF8-X6dO7h-76" value="&lt;b&gt;/&amp;gt; dram2 strain&lt;br&gt;&lt;/b&gt;" style="rounded=1;whiteSpace=wrap;html=1;fillColor=#6d8764;fontColor=#ffffff;strokeColor=#3A5431;" parent="1" vertex="1">
          <mxGeometry x="362" y="577" width="125" height="28" as="geometry" />
        </mxCell>
        <mxCell id="b1TLpH0DYaXF8-X6dO7h-77" value="&lt;b&gt;/&amp;gt; dram2 neighboor&lt;/b&gt;" style="rounded=1;whiteSpace=wrap;html=1;fillColor=#6d8764;fontColor=#ffffff;strokeColor=#3A5431;" parent="1" vertex="1">
          <mxGeometry x="32.5" y="577" width="175" height="28" as="geometry" />
        </mxCell>
        <mxCell id="b1TLpH0DYaXF8-X6dO7h-78" value="&lt;b&gt;/&amp;gt; dram2 merge&lt;/b&gt;" style="rounded=1;whiteSpace=wrap;html=1;fillColor=#6d8764;fontColor=#ffffff;strokeColor=#3A5431;" parent="1" vertex="1">
          <mxGeometry x="199.5" y="533" width="195" height="28" as="geometry" />
        </mxCell>
        <mxCell id="b1TLpH0DYaXF8-X6dO7h-84" value="&lt;font style=&quot;font-size: 23px;&quot;&gt;&lt;b&gt;Annotate&lt;/b&gt;&lt;/font&gt;" style="text;html=1;strokeColor=none;fillColor=none;align=center;verticalAlign=middle;whiteSpace=wrap;rounded=0;fontSize=16;" parent="1" vertex="1">
          <mxGeometry x="517.75" y="262" width="106" height="33" as="geometry" />
        </mxCell>
        <mxCell id="b1TLpH0DYaXF8-X6dO7h-104" style="edgeStyle=orthogonalEdgeStyle;curved=1;rounded=0;orthogonalLoop=1;jettySize=auto;html=1;exitX=0.5;exitY=1;exitDx=0;exitDy=0;strokeWidth=3;fontSize=23;fillColor=#6d8764;strokeColor=#3A5431;entryX=0.5;entryY=0;entryDx=0;entryDy=0;" parent="1" source="7wph3iyhROoM2G9qRR0j-6" target="7wph3iyhROoM2G9qRR0j-13" edge="1">
          <mxGeometry relative="1" as="geometry">
            <Array as="points">
              <mxPoint x="731" y="377" />
              <mxPoint x="750" y="377" />
            </Array>
          </mxGeometry>
        </mxCell>
        <mxCell id="b1TLpH0DYaXF8-X6dO7h-108" style="edgeStyle=orthogonalEdgeStyle;curved=1;rounded=0;orthogonalLoop=1;jettySize=auto;html=1;exitX=0.75;exitY=1;exitDx=0;exitDy=0;strokeWidth=3;fontSize=23;fillColor=#6d8764;strokeColor=#3A5431;" parent="1" source="b1TLpH0DYaXF8-X6dO7h-87" target="b1TLpH0DYaXF8-X6dO7h-93" edge="1">
          <mxGeometry relative="1" as="geometry" />
        </mxCell>
        <mxCell id="b1TLpH0DYaXF8-X6dO7h-85" value="&lt;div&gt;&lt;font style=&quot;font-size: 23px;&quot;&gt;&lt;b&gt;Understand&lt;/b&gt;&lt;/font&gt;&lt;/div&gt;You must first annotate" style="text;html=1;strokeColor=none;fillColor=none;align=center;verticalAlign=middle;whiteSpace=wrap;rounded=0;fontSize=16;" parent="1" vertex="1">
          <mxGeometry x="783" y="241" width="165" height="62" as="geometry" />
        </mxCell>
        <mxCell id="b1TLpH0DYaXF8-X6dO7h-101" style="edgeStyle=orthogonalEdgeStyle;curved=1;rounded=0;orthogonalLoop=1;jettySize=auto;html=1;exitX=0.5;exitY=1;exitDx=0;exitDy=0;strokeWidth=3;fontSize=23;fillColor=#6d8764;strokeColor=#3A5431;" parent="1" source="b1TLpH0DYaXF8-X6dO7h-87" target="b1TLpH0DYaXF8-X6dO7h-94" edge="1">
          <mxGeometry relative="1" as="geometry" />
        </mxCell>
        <mxCell id="sFF2S7-PHeseh_3p-4S--2" style="edgeStyle=orthogonalEdgeStyle;orthogonalLoop=1;jettySize=auto;html=1;exitX=0.25;exitY=1;exitDx=0;exitDy=0;entryX=0.5;entryY=0;entryDx=0;entryDy=0;curved=1;strokeWidth=3;fillColor=#6d8764;strokeColor=#3A5431;" parent="1" source="b1TLpH0DYaXF8-X6dO7h-87" target="b1TLpH0DYaXF8-X6dO7h-92" edge="1">
          <mxGeometry relative="1" as="geometry" />
        </mxCell>
        <mxCell id="b1TLpH0DYaXF8-X6dO7h-87" value="&lt;b&gt;Manipulate&lt;/b&gt;" style="text;html=1;strokeColor=none;fillColor=none;align=center;verticalAlign=middle;whiteSpace=wrap;rounded=0;fontSize=23;" parent="1" vertex="1">
          <mxGeometry x="232" y="267" width="130" height="41" as="geometry" />
        </mxCell>
        <mxCell id="b1TLpH0DYaXF8-X6dO7h-107" style="edgeStyle=orthogonalEdgeStyle;curved=1;rounded=0;orthogonalLoop=1;jettySize=auto;html=1;exitX=0.5;exitY=1;exitDx=0;exitDy=0;entryX=0.5;entryY=0;entryDx=0;entryDy=0;strokeWidth=3;fontSize=23;fillColor=#6d8764;strokeColor=#3A5431;" parent="1" target="b1TLpH0DYaXF8-X6dO7h-75" edge="1">
          <mxGeometry relative="1" as="geometry">
            <Array as="points">
              <mxPoint x="837" y="690" />
              <mxPoint x="870" y="690" />
            </Array>
            <mxPoint x="836.75" y="656" as="sourcePoint" />
          </mxGeometry>
        </mxCell>
        <mxCell id="b1TLpH0DYaXF8-X6dO7h-88" value="&lt;div align=&quot;center&quot;&gt;Summarize metabolic content&lt;br&gt;&lt;/div&gt;" style="text;whiteSpace=wrap;html=1;fontSize=16;align=center;" parent="1" vertex="1">
          <mxGeometry x="781.75" y="585" width="110" height="70" as="geometry" />
        </mxCell>
        <mxCell id="b1TLpH0DYaXF8-X6dO7h-106" style="edgeStyle=orthogonalEdgeStyle;curved=1;rounded=0;orthogonalLoop=1;jettySize=auto;html=1;exitX=0.5;exitY=1;exitDx=0;exitDy=0;strokeWidth=3;fontSize=23;fillColor=#6d8764;strokeColor=#3A5431;" parent="1" source="b1TLpH0DYaXF8-X6dO7h-92" edge="1">
          <mxGeometry relative="1" as="geometry">
            <mxPoint x="112" y="577" as="targetPoint" />
          </mxGeometry>
        </mxCell>
        <mxCell id="b1TLpH0DYaXF8-X6dO7h-92" value="&lt;div align=&quot;center&quot;&gt;Extract around genes of interest&lt;/div&gt;" style="text;whiteSpace=wrap;html=1;fontSize=16;align=center;" parent="1" vertex="1">
          <mxGeometry x="112" y="432" width="120" height="60" as="geometry" />
        </mxCell>
        <mxCell id="b1TLpH0DYaXF8-X6dO7h-109" style="edgeStyle=orthogonalEdgeStyle;curved=1;rounded=0;orthogonalLoop=1;jettySize=auto;html=1;strokeWidth=3;fontSize=23;fillColor=#6d8764;strokeColor=#3A5431;" parent="1" source="b1TLpH0DYaXF8-X6dO7h-93" target="b1TLpH0DYaXF8-X6dO7h-76" edge="1">
          <mxGeometry relative="1" as="geometry" />
        </mxCell>
        <mxCell id="b1TLpH0DYaXF8-X6dO7h-93" value="&lt;div align=&quot;center&quot;&gt;Extract genes of interest&lt;/div&gt;" style="text;whiteSpace=wrap;html=1;fontSize=16;align=center;" parent="1" vertex="1">
          <mxGeometry x="322" y="357" width="120" height="47" as="geometry" />
        </mxCell>
        <mxCell id="b1TLpH0DYaXF8-X6dO7h-102" style="edgeStyle=orthogonalEdgeStyle;curved=1;rounded=0;orthogonalLoop=1;jettySize=auto;html=1;strokeWidth=3;fontSize=23;fillColor=#6d8764;strokeColor=#3A5431;" parent="1" source="b1TLpH0DYaXF8-X6dO7h-94" target="b1TLpH0DYaXF8-X6dO7h-78" edge="1">
          <mxGeometry relative="1" as="geometry" />
        </mxCell>
        <mxCell id="b1TLpH0DYaXF8-X6dO7h-94" value="&lt;div align=&quot;center&quot;&gt;Merge multiple annotations&lt;/div&gt;" style="text;whiteSpace=wrap;html=1;fontSize=16;align=center;" parent="1" vertex="1">
          <mxGeometry x="237" y="425" width="120" height="47" as="geometry" />
        </mxCell>
        <mxCell id="7wph3iyhROoM2G9qRR0j-5" style="edgeStyle=orthogonalEdgeStyle;curved=1;rounded=0;orthogonalLoop=1;jettySize=auto;html=1;strokeWidth=3;fontSize=23;fillColor=#6d8764;strokeColor=#3A5431;exitX=0.5;exitY=1;exitDx=0;exitDy=0;" parent="1" source="b1TLpH0DYaXF8-X6dO7h-84" edge="1">
          <mxGeometry relative="1" as="geometry">
            <mxPoint x="558.5" y="167" as="sourcePoint" />
            <Array as="points">
              <mxPoint x="571" y="327" />
              <mxPoint x="560" y="327" />
            </Array>
            <mxPoint x="560" y="377" as="targetPoint" />
          </mxGeometry>
        </mxCell>
        <mxCell id="7wph3iyhROoM2G9qRR0j-6" value="&lt;font style=&quot;font-size: 23px;&quot;&gt;&lt;b&gt;Supliment&lt;/b&gt;&lt;/font&gt;" style="text;html=1;strokeColor=none;fillColor=none;align=center;verticalAlign=middle;whiteSpace=wrap;rounded=0;fontSize=16;" parent="1" vertex="1">
          <mxGeometry x="678" y="302" width="106" height="33" as="geometry" />
        </mxCell>
        <mxCell id="7wph3iyhROoM2G9qRR0j-7" style="edgeStyle=orthogonalEdgeStyle;curved=1;rounded=0;orthogonalLoop=1;jettySize=auto;html=1;strokeWidth=3;fontSize=23;fillColor=#6d8764;strokeColor=#3A5431;entryX=0.5;entryY=0;entryDx=0;entryDy=0;" parent="1" source="-uMLt3uFbst9-DU3asHZ-7" target="7wph3iyhROoM2G9qRR0j-6" edge="1">
          <mxGeometry relative="1" as="geometry">
            <mxPoint x="558.5" y="167" as="sourcePoint" />
            <Array as="points">
              <mxPoint x="559" y="227" />
              <mxPoint x="731" y="227" />
            </Array>
            <mxPoint x="554" y="272" as="targetPoint" />
          </mxGeometry>
        </mxCell>
        <mxCell id="7wph3iyhROoM2G9qRR0j-8" value="&lt;div align=&quot;left&quot;&gt;&lt;b&gt;/&amp;gt; dram2 genbank&lt;/b&gt;&lt;br&gt;&lt;/div&gt;" style="rounded=1;whiteSpace=wrap;html=1;fillColor=#6d8764;fontColor=#ffffff;strokeColor=#3A5431;align=left;" parent="1" vertex="1">
          <mxGeometry x="584" y="556" width="140" height="28" as="geometry" />
        </mxCell>
        <mxCell id="7wph3iyhROoM2G9qRR0j-9" value="&lt;div align=&quot;left&quot;&gt;&lt;b&gt;/&amp;gt; dram2 trna&lt;/b&gt;&lt;br&gt;&lt;/div&gt;" style="rounded=1;whiteSpace=wrap;html=1;fillColor=#6d8764;fontColor=#ffffff;strokeColor=#3A5431;align=left;" parent="1" vertex="1">
          <mxGeometry x="467" y="667" width="140" height="30" as="geometry" />
        </mxCell>
        <mxCell id="7wph3iyhROoM2G9qRR0j-10" value="&lt;div align=&quot;left&quot;&gt;&lt;b&gt;/&amp;gt; dram2 rrna&lt;/b&gt;&lt;br&gt;&lt;/div&gt;" style="rounded=1;whiteSpace=wrap;html=1;fillColor=#6d8764;fontColor=#ffffff;strokeColor=#3A5431;align=left;" parent="1" vertex="1">
          <mxGeometry x="607" y="710" width="140" height="30" as="geometry" />
        </mxCell>
        <mxCell id="7wph3iyhROoM2G9qRR0j-13" value="&lt;div align=&quot;center&quot;&gt;Get Genbank&lt;br&gt;&lt;/div&gt;" style="text;whiteSpace=wrap;html=1;fontSize=16;align=center;" parent="1" vertex="1">
          <mxGeometry x="700" y="413" width="100" height="53" as="geometry" />
        </mxCell>
        <mxCell id="7wph3iyhROoM2G9qRR0j-14" value="&lt;div align=&quot;center&quot;&gt;Get RRNA and TRNA&lt;br&gt;&lt;/div&gt;" style="text;whiteSpace=wrap;html=1;fontSize=16;align=center;" parent="1" vertex="1">
          <mxGeometry x="647" y="619" width="100" height="53" as="geometry" />
        </mxCell>
        <mxCell id="7wph3iyhROoM2G9qRR0j-15" style="edgeStyle=orthogonalEdgeStyle;curved=1;rounded=0;orthogonalLoop=1;jettySize=auto;html=1;exitX=0.5;exitY=1;exitDx=0;exitDy=0;strokeWidth=3;fontSize=23;fillColor=#6d8764;strokeColor=#3A5431;entryX=0.5;entryY=0;entryDx=0;entryDy=0;" parent="1" target="b1TLpH0DYaXF8-X6dO7h-88" edge="1">
          <mxGeometry relative="1" as="geometry">
            <Array as="points">
              <mxPoint x="876" y="395" />
              <mxPoint x="840" y="395" />
              <mxPoint x="840" y="557" />
              <mxPoint x="837" y="557" />
            </Array>
            <mxPoint x="875.5" y="313" as="sourcePoint" />
            <mxPoint x="947" y="513" as="targetPoint" />
          </mxGeometry>
        </mxCell>
        <mxCell id="7wph3iyhROoM2G9qRR0j-16" style="edgeStyle=orthogonalEdgeStyle;curved=1;rounded=0;orthogonalLoop=1;jettySize=auto;html=1;strokeWidth=3;fontSize=23;fillColor=#6d8764;strokeColor=#3A5431;exitX=0.75;exitY=1;exitDx=0;exitDy=0;entryX=0.5;entryY=0;entryDx=0;entryDy=0;" parent="1" source="7wph3iyhROoM2G9qRR0j-6" target="7wph3iyhROoM2G9qRR0j-14" edge="1">
          <mxGeometry relative="1" as="geometry">
            <Array as="points">
              <mxPoint x="760" y="335" />
              <mxPoint x="760" y="405" />
              <mxPoint x="820" y="405" />
              <mxPoint x="820" y="587" />
              <mxPoint x="697" y="587" />
            </Array>
            <mxPoint x="885.5" y="323" as="sourcePoint" />
            <mxPoint x="957" y="523" as="targetPoint" />
          </mxGeometry>
        </mxCell>
        <mxCell id="7wph3iyhROoM2G9qRR0j-18" style="edgeStyle=orthogonalEdgeStyle;curved=1;rounded=0;orthogonalLoop=1;jettySize=auto;html=1;strokeWidth=3;fontSize=23;fillColor=#6d8764;strokeColor=#3A5431;entryX=0.5;entryY=0;entryDx=0;entryDy=0;" parent="1" source="7wph3iyhROoM2G9qRR0j-13" target="7wph3iyhROoM2G9qRR0j-8" edge="1">
          <mxGeometry relative="1" as="geometry">
            <Array as="points">
              <mxPoint x="730" y="527" />
              <mxPoint x="654" y="527" />
            </Array>
            <mxPoint x="730" y="492" as="sourcePoint" />
            <mxPoint x="749" y="567" as="targetPoint" />
          </mxGeometry>
        </mxCell>
        <mxCell id="7wph3iyhROoM2G9qRR0j-19" style="edgeStyle=orthogonalEdgeStyle;curved=1;rounded=0;orthogonalLoop=1;jettySize=auto;html=1;strokeWidth=3;fontSize=23;fillColor=#6d8764;strokeColor=#3A5431;entryX=0.5;entryY=0;entryDx=0;entryDy=0;" parent="1" source="7wph3iyhROoM2G9qRR0j-14" target="7wph3iyhROoM2G9qRR0j-9" edge="1">
          <mxGeometry relative="1" as="geometry">
            <Array as="points">
              <mxPoint x="627" y="633" />
              <mxPoint x="627" y="637" />
              <mxPoint x="537" y="637" />
            </Array>
            <mxPoint x="575" y="702" as="sourcePoint" />
            <mxPoint x="499" y="792" as="targetPoint" />
          </mxGeometry>
        </mxCell>
        <mxCell id="7wph3iyhROoM2G9qRR0j-22" value="&lt;div&gt;&lt;b&gt;/&amp;gt; dram2 adjective &lt;/b&gt;&lt;/div&gt;" style="rounded=1;whiteSpace=wrap;html=1;fillColor=#6d8764;fontColor=#ffffff;strokeColor=#3A5431;" parent="1" vertex="1">
          <mxGeometry x="898.75" y="631" width="148.25" height="29" as="geometry" />
        </mxCell>
        <mxCell id="7wph3iyhROoM2G9qRR0j-23" style="edgeStyle=orthogonalEdgeStyle;curved=1;rounded=0;orthogonalLoop=1;jettySize=auto;html=1;entryX=0.5;entryY=0;entryDx=0;entryDy=0;strokeWidth=3;fontSize=23;fillColor=#6d8764;strokeColor=#3A5431;" parent="1" source="7wph3iyhROoM2G9qRR0j-24" target="7wph3iyhROoM2G9qRR0j-22" edge="1">
          <mxGeometry relative="1" as="geometry">
            <Array as="points">
              <mxPoint x="920" y="599" />
              <mxPoint x="973" y="599" />
            </Array>
            <mxPoint x="956.75" y="565" as="sourcePoint" />
          </mxGeometry>
        </mxCell>
        <mxCell id="7wph3iyhROoM2G9qRR0j-24" value="&lt;div align=&quot;center&quot;&gt;Describe with adjectives&lt;br&gt;&lt;/div&gt;" style="text;whiteSpace=wrap;html=1;fontSize=16;align=center;" parent="1" vertex="1">
          <mxGeometry x="851" y="472" width="110" height="70" as="geometry" />
        </mxCell>
        <mxCell id="7wph3iyhROoM2G9qRR0j-25" style="edgeStyle=orthogonalEdgeStyle;curved=1;rounded=0;orthogonalLoop=1;jettySize=auto;html=1;exitX=0.75;exitY=1;exitDx=0;exitDy=0;strokeWidth=3;fontSize=23;fillColor=#6d8764;strokeColor=#3A5431;" parent="1" source="b1TLpH0DYaXF8-X6dO7h-85" target="7wph3iyhROoM2G9qRR0j-24" edge="1">
          <mxGeometry relative="1" as="geometry">
            <Array as="points">
              <mxPoint x="907" y="357" />
              <mxPoint x="900" y="357" />
            </Array>
            <mxPoint x="995.5" y="223" as="sourcePoint" />
            <mxPoint x="1067" y="423" as="targetPoint" />
          </mxGeometry>
        </mxCell>
        <mxCell id="7wph3iyhROoM2G9qRR0j-30" value="&lt;div&gt;&lt;b&gt;/&amp;gt; dram2 amg_summary &lt;/b&gt;&lt;/div&gt;" style="rounded=1;whiteSpace=wrap;html=1;fillColor=#6d8764;fontColor=#ffffff;strokeColor=#3A5431;" parent="1" vertex="1">
          <mxGeometry x="998.75" y="681" width="148.25" height="29" as="geometry" />
        </mxCell>
        <mxCell id="7wph3iyhROoM2G9qRR0j-31" style="edgeStyle=orthogonalEdgeStyle;curved=1;rounded=0;orthogonalLoop=1;jettySize=auto;html=1;exitX=0.5;exitY=1;exitDx=0;exitDy=0;entryX=0.5;entryY=0;entryDx=0;entryDy=0;strokeWidth=3;fontSize=23;fillColor=#6d8764;strokeColor=#3A5431;" parent="1" source="7wph3iyhROoM2G9qRR0j-32" target="7wph3iyhROoM2G9qRR0j-30" edge="1">
          <mxGeometry relative="1" as="geometry">
            <Array as="points">
              <mxPoint x="990" y="533" />
              <mxPoint x="990" y="619" />
              <mxPoint x="1073" y="619" />
            </Array>
          </mxGeometry>
        </mxCell>
        <mxCell id="7wph3iyhROoM2G9qRR0j-32" value="Get more" style="text;whiteSpace=wrap;html=1;fontSize=16;align=center;" parent="1" vertex="1">
          <mxGeometry x="948" y="489" width="95.25" height="44" as="geometry" />
        </mxCell>
        <mxCell id="7wph3iyhROoM2G9qRR0j-33" style="edgeStyle=orthogonalEdgeStyle;curved=1;rounded=0;orthogonalLoop=1;jettySize=auto;html=1;strokeWidth=3;fontSize=23;fillColor=#6d8764;strokeColor=#3A5431;exitX=0.891;exitY=0.903;exitDx=0;exitDy=0;exitPerimeter=0;" parent="1" source="b1TLpH0DYaXF8-X6dO7h-85" target="7wph3iyhROoM2G9qRR0j-32" edge="1">
          <mxGeometry relative="1" as="geometry">
            <Array as="points">
              <mxPoint x="996" y="297" />
            </Array>
            <mxPoint x="1006.75" y="353" as="sourcePoint" />
            <mxPoint x="1167" y="473" as="targetPoint" />
          </mxGeometry>
        </mxCell>
        <mxCell id="7wph3iyhROoM2G9qRR0j-35" value="&lt;div&gt;&lt;b&gt;/&amp;gt;dram2 --help&lt;br&gt;&lt;/b&gt;&lt;/div&gt;" style="rounded=1;whiteSpace=wrap;html=1;fillColor=#647687;fontColor=#ffffff;strokeColor=#314354;" parent="1" vertex="1">
          <mxGeometry x="10" y="232" width="160" height="30" as="geometry" />
        </mxCell>
        <mxCell id="7wph3iyhROoM2G9qRR0j-36" style="edgeStyle=orthogonalEdgeStyle;curved=1;rounded=0;orthogonalLoop=1;jettySize=auto;html=1;entryX=0.5;entryY=0;entryDx=0;entryDy=0;strokeWidth=3;fontSize=16;fillColor=#647687;strokeColor=#314354;" parent="1" target="7wph3iyhROoM2G9qRR0j-35" edge="1">
          <mxGeometry relative="1" as="geometry">
            <mxPoint x="230" y="177" as="sourcePoint" />
            <Array as="points">
              <mxPoint x="230" y="187" />
              <mxPoint x="90" y="187" />
            </Array>
          </mxGeometry>
        </mxCell>
        <mxCell id="7wph3iyhROoM2G9qRR0j-37" style="edgeStyle=orthogonalEdgeStyle;curved=1;rounded=0;orthogonalLoop=1;jettySize=auto;html=1;strokeWidth=3;fontSize=16;exitX=0;exitY=0.5;exitDx=0;exitDy=0;" parent="1" source="-uMLt3uFbst9-DU3asHZ-7" target="b1TLpH0DYaXF8-X6dO7h-13" edge="1">
          <mxGeometry relative="1" as="geometry">
            <mxPoint x="329.99882352941216" y="127" as="sourcePoint" />
            <mxPoint x="378.44" y="180" as="targetPoint" />
          </mxGeometry>
        </mxCell>
        <mxCell id="7wph3iyhROoM2G9qRR0j-40" value="&lt;div&gt;&lt;b&gt;/&amp;gt; dram2 genome_stats &lt;/b&gt;&lt;/div&gt;" style="rounded=1;whiteSpace=wrap;html=1;fillColor=#6d8764;fontColor=#ffffff;strokeColor=#3A5431;" parent="1" vertex="1">
          <mxGeometry x="1011.75" y="740" width="148.25" height="29" as="geometry" />
        </mxCell>
        <mxCell id="7wph3iyhROoM2G9qRR0j-41" style="edgeStyle=orthogonalEdgeStyle;curved=1;rounded=0;orthogonalLoop=1;jettySize=auto;html=1;entryX=0.5;entryY=0;entryDx=0;entryDy=0;strokeWidth=3;fontSize=23;fillColor=#6d8764;strokeColor=#3A5431;" parent="1" source="7wph3iyhROoM2G9qRR0j-32" target="7wph3iyhROoM2G9qRR0j-40" edge="1">
          <mxGeometry relative="1" as="geometry">
            <Array as="points">
              <mxPoint x="1059" y="511" />
              <mxPoint x="1059" y="627" />
              <mxPoint x="1167" y="627" />
              <mxPoint x="1167" y="719" />
              <mxPoint x="1086" y="719" />
            </Array>
            <mxPoint x="1059.3749999999995" y="599" as="sourcePoint" />
            <mxPoint x="1082.875" y="689.9999999999998" as="targetPoint" />
          </mxGeometry>
        </mxCell>
        <mxCell id="7wph3iyhROoM2G9qRR0j-42" style="edgeStyle=orthogonalEdgeStyle;curved=1;rounded=0;orthogonalLoop=1;jettySize=auto;html=1;exitX=0.5;exitY=1;exitDx=0;exitDy=0;strokeWidth=3;fontSize=23;fillColor=#6d8764;strokeColor=#3A5431;" parent="1" edge="1">
          <mxGeometry relative="1" as="geometry">
            <Array as="points">
              <mxPoint x="724" y="677" />
              <mxPoint x="670" y="677" />
            </Array>
            <mxPoint x="724" y="649.5" as="sourcePoint" />
            <mxPoint x="670" y="707" as="targetPoint" />
          </mxGeometry>
        </mxCell>
      </root>
    </mxGraphModel>
  </diagram>
  <diagram id="Fb26pAfEgdmVf6KJOUbw" name="Page-2">
    <mxGraphModel dx="1606" dy="1073" grid="1" gridSize="10" guides="1" tooltips="1" connect="1" arrows="1" fold="1" page="1" pageScale="1" pageWidth="850" pageHeight="1100" math="0" shadow="0">
      <root>
        <mxCell id="0" />
        <mxCell id="1" parent="0" />
      </root>
    </mxGraphModel>
  </diagram>
</mxfile>
